<svg xmlns="http://www.w3.org/2000/svg" width="33" height="33" viewBox="0 0 33 33">
  <g id="그룹_14" data-name="그룹 14" transform="translate(-2657 -3112)">
    <rect id="사각형_52" data-name="사각형 52" width="33" height="33" transform="translate(2657 3112)" fill="none"/>
    <path id="패스_7" data-name="패스 7" d="M.845,26.061s13.887,10.167,10.748-1.6c0,0-6.278-8.633-2.747-16.088S28.073-3.8,32,4.052c0,0,1.177,3.139-3.924-1.177,0,0-7.455-3.532-6.671,4.316,0,0,5.1,4.316,4.709,12.949s-7.063,9.025-7.063,9.025,5.494-3.139-1.962-13.341c0,0,5.494,9.81-3.139,15.3-1.189.9-7.375,1.022-9.417-.785-2.566-2.271-6.192-5.03-3.685-4.281" transform="translate(2657.443 3112.618)" fill="#6aae27"/>
  </g>
</svg>
