<svg width="130" height="43" viewBox="0 0 130 43" fill="none" xmlns="http://www.w3.org/2000/svg">
<g clip-path="url(#clip0_42_1788)">
<path d="M38.0287 32.6958C37.1404 32.3794 36.9721 32.1684 36.9721 31.8054C36.9721 31.4424 37.2277 31.1538 37.8355 31.1538C38.2812 31.1538 38.5773 31.2996 38.9014 31.5665L39.2194 31.1786C38.8453 30.8808 38.4651 30.707 37.8666 30.707C37.0376 30.707 36.4765 31.129 36.4765 31.8364C36.4765 32.4756 36.8007 32.7858 37.7607 33.1271C38.5742 33.4188 38.8204 33.6515 38.8204 34.061C38.8204 34.5295 38.4526 34.8212 37.8635 34.8212C37.4054 34.8212 37.0189 34.6102 36.6822 34.2906L36.355 34.6567C36.7041 35.0104 37.2433 35.2711 37.8479 35.2711C38.7736 35.2711 39.3191 34.7312 39.3191 34.0393C39.3191 33.3474 39.0168 33.0527 38.0318 32.6989L38.0287 32.6958Z" fill="white"/>
<path d="M41.3325 31.8148C40.8993 31.8148 40.5066 31.9203 40.2136 32.0785L40.3944 32.4633C40.6655 32.305 40.9523 32.2088 41.3014 32.2088C41.7876 32.2088 42.0245 32.4477 42.0245 32.9442V33.3351C41.8281 33.2265 41.5258 33.1427 41.1923 33.1427C40.5346 33.1427 39.9175 33.4592 39.9175 34.2039C39.9175 35.0044 40.4629 35.265 40.9803 35.265C41.4603 35.265 41.7876 35.0416 42.0245 34.7903V35.1967H42.4982V32.8821C42.4982 32.1127 42.0494 31.8086 41.3325 31.8086V31.8148ZM42.0213 34.3869C41.8187 34.6631 41.4946 34.8833 41.0645 34.8833C40.6562 34.8833 40.3819 34.6693 40.3819 34.1759C40.3819 33.7602 40.6749 33.5244 41.1642 33.5244C41.5694 33.5244 41.8032 33.5988 42.0213 33.7167V34.39V34.3869Z" fill="white"/>
<path d="M47.2797 33.2592V35.2014H47.7534V33.1816C47.7534 32.2135 47.3296 31.8164 46.6501 31.8164C46.1078 31.8164 45.8366 32.0677 45.6402 32.3842C45.4813 32.0677 45.1976 31.8164 44.727 31.8164C44.3343 31.8164 44.0538 32.0057 43.8823 32.2911V31.8878H43.4023V35.2045H43.8823V33.2623C43.8823 32.5269 44.166 32.226 44.6241 32.226C45.0823 32.226 45.341 32.5021 45.341 33.2623V35.2045H45.8179V33.2623C45.8179 32.5269 46.1078 32.226 46.5597 32.226C47.0397 32.226 47.2766 32.5021 47.2766 33.2623L47.2797 33.2592Z" fill="white"/>
<path d="M49.6636 33.2708C49.0995 33.0163 48.9312 32.9077 48.9312 32.6254C48.9312 32.3834 49.1307 32.2158 49.4829 32.2158C49.8351 32.2158 50.0532 32.3089 50.3119 32.5137L50.5769 32.1631C50.3244 31.9552 49.9691 31.8125 49.514 31.8125C48.9062 31.8125 48.473 32.1538 48.473 32.6564C48.473 33.187 48.7504 33.3887 49.4205 33.6741C50.0096 33.9254 50.206 34.0775 50.206 34.3505C50.206 34.6732 49.9909 34.8624 49.5327 34.8624C49.2023 34.8624 48.8907 34.729 48.6257 34.4963L48.3452 34.8407C48.6631 35.0951 49.0621 35.2658 49.5203 35.2658C50.0969 35.2658 50.661 34.9834 50.661 34.3288C50.661 33.7362 50.2932 33.5531 49.6605 33.2677L49.6636 33.2708Z" fill="white"/>
<path d="M53.4416 33.822C53.4416 34.548 53.0769 34.8552 52.6188 34.8552C52.0827 34.8552 51.8302 34.5356 51.8302 33.822V31.8828H51.3564V33.9027C51.3564 34.8552 51.8209 35.2678 52.5221 35.2678C52.9429 35.2678 53.2515 35.0724 53.4416 34.7931V35.1996H53.9185V31.8828H53.4416V33.822Z" fill="white"/>
<path d="M57.2844 35.2014V33.1816C57.2844 32.226 56.82 31.8164 56.1156 31.8164C55.6979 31.8164 55.3862 32.0119 55.1992 32.2911V31.8878H54.7192V35.2045H55.1992V33.2623C55.1992 32.5362 55.5577 32.226 56.019 32.226C56.5519 32.226 56.8075 32.5486 56.8075 33.2623V35.2045H57.2844V35.2014Z" fill="white"/>
<path d="M58.7836 36.057L58.9363 36.4169C60.1737 36.3796 60.6225 35.8987 60.6225 34.8997V31.8808H60.1456V32.2531C59.9118 31.9862 59.6251 31.8125 59.2074 31.8125C58.5093 31.8125 57.9482 32.4175 57.9482 33.5934C57.9482 34.7694 58.4781 35.2658 59.142 35.2658C59.5939 35.2658 59.9118 35.0424 60.1456 34.7911V34.9617C60.1456 35.7343 59.8931 36.0259 58.7804 36.0539L58.7836 36.057ZM59.2667 34.8562C58.7399 34.8562 58.422 34.4219 58.422 33.5872C58.422 32.6968 58.6932 32.2221 59.248 32.2221C59.6438 32.2221 59.9648 32.4423 60.1487 32.7185V34.3784C59.915 34.6701 59.622 34.8562 59.2667 34.8562Z" fill="white"/>
<path d="M65.8777 32.9546C65.8777 31.4374 65.0175 30.7734 63.8518 30.7734H62.6768V35.1979H63.7645C64.952 35.1979 65.8777 34.5587 65.8777 32.9546ZM63.1723 31.2202H63.8144C64.8367 31.2202 65.3822 31.8408 65.3822 32.9701C65.3822 34.2422 64.7837 34.748 63.8269 34.748H63.1723V31.2202Z" fill="white"/>
<path d="M67.1463 32.2911V31.8816H66.6694V35.1983H67.1463V33.2498C67.1463 32.6169 67.4081 32.2477 67.8725 32.2477C68.0938 32.2477 68.2372 32.2973 68.3712 32.3749L68.4897 31.8971C68.3775 31.8474 68.2185 31.8164 67.9692 31.8164C67.6107 31.8164 67.2959 32.0305 67.1463 32.2942V32.2911Z" fill="white"/>
<path d="M71.3381 34.8819L71.1137 34.5406C70.8083 34.7422 70.5808 34.857 70.1911 34.857C69.6488 34.857 69.3091 34.4071 69.2654 33.7028H71.4846C71.5002 33.6253 71.5065 33.557 71.5065 33.4453C71.5065 32.499 71.0327 31.8164 70.1631 31.8164C69.3714 31.8164 68.7886 32.4711 68.7886 33.5229C68.7886 34.8291 69.5304 35.2697 70.1413 35.2697C70.6431 35.2697 70.9361 35.1363 71.3381 34.885V34.8819ZM70.1631 32.2229C70.7459 32.2229 71.0265 32.6727 71.0639 33.315H69.2654C69.3216 32.5735 69.6675 32.2229 70.1631 32.2229Z" fill="white"/>
<path d="M73.0961 35.2689C73.573 35.2689 73.9003 35.0455 74.134 34.7942V35.2006H74.6109V32.886C74.6109 32.1166 74.1621 31.8125 73.4452 31.8125C73.012 31.8125 72.6192 31.918 72.3263 32.0762L72.5039 32.461C72.7782 32.3027 73.0618 32.2065 73.4109 32.2065C73.9003 32.2065 74.134 32.4454 74.134 32.9419V33.3328C73.9377 33.2242 73.6384 33.1404 73.3049 33.1404C72.6442 33.1404 72.0239 33.4569 72.0239 34.2016C72.0239 35.0021 72.5725 35.2627 73.093 35.2627L73.0961 35.2689ZM73.28 33.5221C73.6852 33.5221 73.9221 33.5965 74.1371 33.7144V34.3877C73.9345 34.6639 73.6104 34.8842 73.1803 34.8842C72.7751 34.8842 72.4977 34.6701 72.4977 34.1767C72.4977 33.761 72.7938 33.5252 73.28 33.5252V33.5221Z" fill="white"/>
<path d="M79.3922 33.2592V35.2014H79.8691V33.1816C79.8691 32.2135 79.4452 31.8164 78.7657 31.8164C78.2265 31.8164 77.9522 32.0677 77.759 32.3842C77.6 32.0677 77.3164 31.8164 76.8458 31.8164C76.4499 31.8164 76.1725 32.0057 76.0011 32.2911V31.8878H75.5273V35.2045H76.0011V33.2623C76.0011 32.5269 76.2878 32.226 76.746 32.226C77.2042 32.226 77.466 32.5021 77.466 33.2623V35.2045H77.9398V33.2623C77.9398 32.5269 78.2296 32.226 78.6847 32.226C79.1647 32.226 79.4016 32.5021 79.4016 33.2623L79.3922 33.2592Z" fill="white"/>
<path d="M38.0287 39.2787C37.1373 38.9622 36.9752 38.7543 36.9752 38.3882C36.9752 38.0221 37.2308 37.7398 37.8386 37.7398C38.2843 37.7398 38.5835 37.8825 38.9046 38.1493L39.2225 37.7646C38.8484 37.4698 38.4651 37.293 37.8698 37.293C37.0376 37.293 36.4797 37.7087 36.4797 38.4223C36.4797 39.0615 36.8038 39.3687 37.7638 39.71C38.5773 40.0047 38.8235 40.2343 38.8235 40.647C38.8235 41.1124 38.4557 41.404 37.8635 41.404C37.4054 41.404 37.0189 41.193 36.6822 40.8735L36.355 41.2396C36.7041 41.5933 37.2433 41.8508 37.8479 41.8508C38.7736 41.8508 39.316 41.314 39.316 40.619C39.316 39.924 39.0136 39.6324 38.0318 39.2787H38.0287Z" fill="white"/>
<path d="M41.3388 38.8072C41.6754 38.8072 41.8967 38.9251 42.1367 39.1423L42.4235 38.7886C42.1616 38.559 41.8157 38.3945 41.37 38.3945C40.6718 38.3945 39.9331 38.9127 39.9331 40.1382C39.9331 41.2955 40.6032 41.8478 41.3357 41.8478C41.8032 41.8478 42.1274 41.671 42.4079 41.3855L42.1211 41.0846C41.8936 41.3048 41.6785 41.4352 41.3544 41.4352C40.7653 41.4352 40.4131 40.9108 40.4131 40.0948C40.4131 39.2788 40.8152 38.801 41.3357 38.801L41.3388 38.8072Z" fill="white"/>
<path d="M44.4588 38.3953C44.0412 38.3953 43.7264 38.5908 43.5363 38.87V37.3125H43.0625V41.7866H43.5363V39.8443C43.5363 39.1183 43.9009 38.808 44.3622 38.808C44.8983 38.808 45.1508 39.1276 45.1508 39.8443V41.7866H45.6277V39.7605C45.6277 38.808 45.1632 38.3953 44.4588 38.3953Z" fill="white"/>
<path d="M47.7534 38.3945C46.943 38.3945 46.2979 38.9996 46.2979 40.1258C46.2979 41.2521 46.9181 41.8509 47.7285 41.8509C48.5389 41.8509 49.1903 41.2273 49.1903 40.101C49.1903 38.9747 48.5638 38.3945 47.7534 38.3945ZM47.7441 41.4383C47.1643 41.4383 46.7747 40.9853 46.7747 40.1134C46.7747 39.2416 47.1643 38.8072 47.7441 38.8072C48.3238 38.8072 48.7134 39.2416 48.7134 40.1134C48.7134 40.9853 48.3207 41.4383 47.7441 41.4383Z" fill="white"/>
<path d="M50.3836 37.3086H49.9067V41.7827H50.3836V37.3086Z" fill="white"/>
<path d="M52.5623 38.3945C52.1291 38.3945 51.7364 38.5031 51.4465 38.6614L51.6242 39.0492C51.8984 38.891 52.1852 38.7948 52.5343 38.7948C53.0205 38.7948 53.2574 39.0368 53.2574 39.527V39.921C53.061 39.8125 52.7618 39.7287 52.4283 39.7287C51.7675 39.7287 51.1504 40.0452 51.1504 40.7929C51.1504 41.5934 51.6958 41.8509 52.2163 41.8509C52.6932 41.8509 53.0205 41.6306 53.2574 41.3793V41.7858H53.7342V39.4743C53.7342 38.6986 53.2823 38.3976 52.5654 38.3976L52.5623 38.3945ZM53.2543 40.9666C53.0548 41.2397 52.7244 41.4631 52.2974 41.4631C51.8922 41.4631 51.6179 41.249 51.6179 40.7557C51.6179 40.3368 51.9109 40.1072 52.4002 40.1072C52.8054 40.1072 53.0392 40.1755 53.2543 40.2965V40.9666Z" fill="white"/>
<path d="M55.1151 38.8777V38.462H54.6382V41.7819H55.1151V39.8334C55.1151 39.2035 55.3706 38.8281 55.8382 38.8281C56.0626 38.8281 56.2059 38.8777 56.34 38.9553L56.4615 38.4744C56.3462 38.4248 56.1904 38.3906 55.941 38.3906C55.5857 38.3906 55.2647 38.6047 55.1182 38.8746L55.1151 38.8777Z" fill="white"/>
<path d="M58.2883 39.8528C57.7242 39.5984 57.5528 39.4836 57.5528 39.2074C57.5528 38.9685 57.7554 38.7979 58.1044 38.7979C58.4535 38.7979 58.6779 38.8941 58.9366 39.0957L59.2016 38.7482C58.946 38.5404 58.5938 38.3945 58.1356 38.3945C57.5309 38.3945 57.0915 38.7358 57.0915 39.2416C57.0915 39.7473 57.372 39.9738 58.039 40.2561C58.6281 40.5075 58.8244 40.6626 58.8244 40.9325C58.8244 41.2583 58.6094 41.4445 58.1543 41.4445C57.8208 41.4445 57.5122 41.311 57.2442 41.0783L56.9668 41.4258C57.2847 41.6803 57.6837 41.8478 58.1418 41.8478C58.7185 41.8478 59.2826 41.5624 59.2826 40.9139C59.2826 40.3182 58.9148 40.1382 58.2852 39.8528H58.2883Z" fill="white"/>
<path d="M61.458 38.3953C61.0342 38.3953 60.7256 38.5908 60.5355 38.87V37.3125H60.0586V41.7866H60.5355V39.8443C60.5355 39.1183 60.897 38.808 61.3614 38.808C61.8944 38.808 62.1469 39.1276 62.1469 39.8443V41.7866H62.6237V39.7605C62.6237 38.808 62.1625 38.3953 61.458 38.3953Z" fill="white"/>
<path d="M64.0387 38.4609H63.5649V41.7808H64.0387V38.4609Z" fill="white"/>
<path d="M63.8113 37.1953C63.6181 37.1953 63.4653 37.3473 63.4653 37.5397C63.4653 37.7321 63.6181 37.8748 63.8113 37.8748C63.989 37.8748 64.1417 37.7197 64.1417 37.5397C64.1417 37.3473 63.989 37.1953 63.8113 37.1953Z" fill="white"/>
<path d="M66.479 38.3945C66.0302 38.3945 65.7123 38.6179 65.4754 38.8692V38.4628H64.9985V43.002H65.4754V41.4103C65.7092 41.6741 65.9959 41.8509 66.4167 41.8509C67.1117 41.8509 67.6728 41.2428 67.6728 40.07C67.6728 38.8972 67.1429 38.3945 66.479 38.3945ZM66.3762 41.4383C65.9835 41.4383 65.6593 41.218 65.4754 40.9387V39.2819C65.7092 38.9933 66.0022 38.8041 66.3575 38.8041C66.8873 38.8041 67.2053 39.2385 67.2053 40.0731C67.2053 40.9635 66.931 41.4352 66.3793 41.4352L66.3762 41.4383Z" fill="white"/>
<path d="M70.1943 37.8062H72.3075V37.3594H69.6987V41.7838H70.1943V39.7205H71.413V39.2737H70.1943V37.8062Z" fill="white"/>
<path d="M73.7541 38.3945C72.9437 38.3945 72.2954 38.9996 72.2954 40.1258C72.2954 41.2521 72.9188 41.8509 73.7292 41.8509C74.5395 41.8509 75.191 41.2273 75.191 40.101C75.191 38.9747 74.5707 38.3945 73.7541 38.3945ZM73.7447 41.4383C73.165 41.4383 72.7816 40.9853 72.7816 40.1134C72.7816 39.2416 73.1681 38.8072 73.7447 38.8072C74.3214 38.8072 74.7172 39.2416 74.7172 40.1134C74.7172 40.9853 74.3245 41.4383 73.7447 41.4383Z" fill="white"/>
<path d="M77.8181 40.4032C77.8181 41.1292 77.4596 41.4395 76.9952 41.4395C76.4623 41.4395 76.2067 41.1199 76.2067 40.4032V38.4609H75.7329V40.4839C75.7329 41.4364 76.1973 41.8491 76.9017 41.8491C77.3163 41.8491 77.6279 41.6567 77.8181 41.3775V41.7839H78.2981V38.464H77.8181V40.4063V40.4032Z" fill="white"/>
<path d="M80.4925 38.3976C80.0749 38.3976 79.7632 38.5931 79.5731 38.8723V38.4659H79.0962V41.7858H79.5731V39.8435C79.5731 39.1175 79.9346 38.8072 80.399 38.8072C80.932 38.8072 81.1845 39.1268 81.1845 39.8435V41.7858H81.6613V39.7597C81.6613 38.8072 81.1969 38.3945 80.4925 38.3945V38.3976Z" fill="white"/>
<path d="M84.5255 38.8382C84.2886 38.5714 84.005 38.3914 83.5842 38.3914C82.886 38.3914 82.3281 38.9965 82.3281 40.1755C82.3281 41.3545 82.8549 41.8478 83.5219 41.8478C83.9738 41.8478 84.2886 41.6275 84.5224 41.3762V41.7827H84.9992V37.3086H84.5224V38.8382H84.5255ZM84.5255 40.9604C84.2886 41.249 83.9987 41.4383 83.6434 41.4383C83.1167 41.4383 82.7988 41.0039 82.7988 40.1693C82.7988 39.2757 83.0699 38.8041 83.6247 38.8041C84.0174 38.8041 84.3385 39.0244 84.5255 39.3036V40.9573V40.9604Z" fill="white"/>
<path d="M87.0192 38.3945C86.5891 38.3945 86.1964 38.5031 85.9034 38.6614L86.0779 39.0492C86.3522 38.891 86.639 38.7948 86.9881 38.7948C87.4743 38.7948 87.708 39.0368 87.708 39.527V39.921C87.5117 39.8125 87.2125 39.7287 86.8759 39.7287C86.2182 39.7287 85.6011 40.0452 85.6011 40.7929C85.6011 41.5934 86.1496 41.8509 86.6701 41.8509C87.147 41.8509 87.4743 41.6306 87.708 41.3793V41.7858H88.1849V39.4743C88.1849 38.6986 87.7361 38.3976 87.0161 38.3976L87.0192 38.3945ZM87.7112 40.9666C87.5086 41.2397 87.1875 41.4631 86.7512 41.4631C86.3491 41.4631 86.0779 41.249 86.0779 40.7557C86.0779 40.3368 86.3678 40.1072 86.8572 40.1072C87.2623 40.1072 87.4992 40.1755 87.7112 40.2965V40.9666Z" fill="white"/>
<path d="M89.7059 37.3086H89.2259V38.4597H88.8145V38.8599H89.2259V41.097C89.2259 41.6461 89.4503 41.8447 89.8648 41.8447C90.1142 41.8447 90.2918 41.8075 90.4757 41.733L90.51 41.3235C90.3573 41.3855 90.2326 41.4165 90.0394 41.4165C89.7869 41.4165 89.7059 41.3142 89.7059 41.0194V38.8599H90.5318V38.4597H89.7059V37.3086Z" fill="white"/>
<path d="M91.6134 37.1953C91.4171 37.1953 91.2612 37.3473 91.2612 37.5397C91.2612 37.7321 91.4171 37.8748 91.6134 37.8748C91.7911 37.8748 91.9407 37.7197 91.9407 37.5397C91.9407 37.3473 91.788 37.1953 91.6134 37.1953Z" fill="white"/>
<path d="M91.8406 38.4609H91.3638V41.7808H91.8406V38.4609Z" fill="white"/>
<path d="M94.0163 38.3945C93.2059 38.3945 92.5576 38.9996 92.5576 40.1258C92.5576 41.2521 93.1779 41.8509 93.9914 41.8509C94.8049 41.8509 95.45 41.2273 95.45 40.101C95.45 38.9747 94.8267 38.3945 94.0163 38.3945ZM94.0038 41.4383C93.4272 41.4383 93.0376 40.9853 93.0376 40.1134C93.0376 39.2416 93.4272 38.8072 94.0038 38.8072C94.5804 38.8072 94.9763 39.2416 94.9763 40.1134C94.9763 40.9853 94.5836 41.4383 94.0038 41.4383Z" fill="white"/>
<path d="M97.5352 38.3976C97.1175 38.3976 96.8059 38.5931 96.6126 38.8723V38.4659H96.1357V41.7858H96.6126V39.8435C96.6126 39.1175 96.9742 38.8072 97.4386 38.8072C97.9716 38.8072 98.2271 39.1268 98.2271 39.8435V41.7858H98.7009V39.7597C98.7009 38.8072 98.2365 38.3945 97.5352 38.3945V38.3976Z" fill="white"/>
<path d="M54.691 22.0664C52.7773 22.0695 51.2002 23.5588 51.2002 25.4266C51.2002 27.2944 52.7773 28.7682 54.691 28.7744C56.6235 28.7682 58.185 27.2758 58.185 25.4266C58.185 23.5774 56.6235 22.0695 54.691 22.0664ZM54.6443 27.2417C53.6438 27.2417 52.8895 26.4288 52.8895 25.4266C52.8895 24.4244 53.6968 23.596 54.6942 23.596C55.6915 23.596 56.4708 24.4089 56.4708 25.4266C56.4708 26.4443 55.6541 27.2417 54.6474 27.2417H54.6443Z" fill="white"/>
<path d="M38.6734 19.7552C39.2064 20.2795 39.8173 20.7387 40.4189 21.0335L40.4812 21.0676L41.5129 19.8545L41.4131 19.7986C40.4344 19.2712 39.6677 18.6041 39.1659 17.7633C38.6672 16.9348 38.4116 15.973 38.4116 14.8219V13.7422H36.5665V14.7071C36.5665 15.9544 36.2828 16.9348 35.7498 17.7943C35.1545 18.7468 34.2725 19.5132 33.1442 20.2237L33.0444 20.2857L34.1634 21.4399L34.2257 21.4058C34.8927 21.0459 35.6002 20.4905 36.2143 19.87C36.7472 19.327 37.2085 18.7468 37.489 18.1976C37.7602 18.7375 38.1747 19.2867 38.6734 19.7583V19.7552Z" fill="white"/>
<path d="M36.6758 27.9794H44.3993V22.7266H36.6758V27.9794ZM38.4119 24.2096H42.6632V26.4963H38.4119V24.2096Z" fill="white"/>
<path d="M62.4268 27.9794H71.1601V22.7266H62.4268V27.9794ZM64.1441 24.2096H69.4459V26.4963H64.1441V24.2096Z" fill="white"/>
<path d="M44.4303 13.4297H42.7129V22.1234H44.4303V18.2761H46.4406V16.7309H44.4303V13.4297Z" fill="white"/>
<path d="M80.0368 20.1965C80.601 20.6836 81.2461 21.0932 81.8539 21.3569L81.9163 21.3848L82.8451 20.1344L82.7453 20.0848C81.8602 19.6349 81.0716 19.0764 80.5043 18.3938C79.9277 17.6988 79.5849 16.8611 79.5849 15.8527V15.558H82.1407V14.0625H75.2026V15.558H77.7553V15.9179C77.7553 16.8363 77.4498 17.6926 76.9418 18.4342C76.3465 19.3246 75.4769 20.0414 74.6322 20.5068L74.52 20.5657L75.6608 21.7416L75.7231 21.7106C76.3371 21.3631 77.0166 20.8387 77.5963 20.2492C78.0607 19.7652 78.4784 19.2533 78.734 18.7413C79.0425 19.2378 79.5163 19.7342 80.0399 20.1965H80.0368Z" fill="white"/>
<path d="M92.4575 24.2448H98.7005V27.9773H100.433V22.7617H92.4575V24.2448Z" fill="white"/>
<path d="M96.7649 18.2652C96.7649 17.443 96.394 16.686 95.8454 16.1089H97.5597V14.6289H94.287V13H92.4263V14.6289H89.0757V16.1089H90.8273C90.2912 16.686 89.9203 17.4368 89.9203 18.2652C89.9203 20.0989 91.4382 21.5882 93.3364 21.5944C95.2345 21.5882 96.7618 20.0989 96.7649 18.2652ZM91.5754 18.197C91.5754 17.1824 92.4356 16.323 93.3364 16.323C94.2372 16.323 95.0943 17.1855 95.0974 18.197C95.0974 19.196 94.2372 20.0586 93.3364 20.0617C92.4325 20.0586 91.5785 19.196 91.5754 18.197Z" fill="white"/>
<path d="M100.433 13.4297H98.7192V22.1544H100.433V18.8252H102.45V17.2801H100.433V13.4297Z" fill="white"/>
<path d="M85.8871 13.4297H84.1729V22.1544H85.8871V18.2761H87.9006V16.7309H85.8871V13.4297Z" fill="white"/>
<path d="M56.7885 16.0173H54.0894V17.5469H56.7885V22.4306H58.5059V13.4297H56.7885V16.0173Z" fill="white"/>
<path d="M52.4282 19.9817C52.9643 20.5029 53.5907 20.9621 54.1892 21.2724L54.2546 21.3096L55.2863 20.0965L55.1866 20.0406C54.2079 19.5287 53.4567 18.8647 52.9518 18.0363C52.4406 17.2141 52.1851 16.215 52.1851 15.0639V13.7422H50.3368V14.9522C50.3368 16.1995 50.0563 17.1769 49.5357 18.0208C48.9435 18.9888 48.0428 19.7614 46.9145 20.4657L46.8179 20.5277L47.943 21.685L47.9991 21.6478C48.663 21.2848 49.355 20.7604 49.969 20.1616C50.5238 19.6125 50.9851 19.0136 51.2656 18.4396C51.5305 18.964 51.9357 19.4977 52.4282 19.9848V19.9817Z" fill="white"/>
<path d="M82.2064 22.0664C80.2926 22.0695 78.7155 23.5588 78.7124 25.4266C78.7155 27.2758 80.2895 28.7682 82.2064 28.7744C84.1357 28.7682 85.7003 27.2758 85.7003 25.4266C85.7003 23.5774 84.1357 22.0695 82.2064 22.0664ZM82.1565 27.2417C81.1591 27.2417 80.3986 26.4288 80.3986 25.4266C80.3986 24.4244 81.2028 23.596 82.2064 23.596C83.21 23.596 83.9799 24.4089 83.983 25.4266C83.983 26.4257 83.1632 27.2417 82.1565 27.2417Z" fill="white"/>
<path d="M64.5184 18.4165H66.2358V13.9766H61.6011V15.4534H64.5184V18.4165Z" fill="white"/>
<path d="M69.6735 18.4165H71.394V13.9766H66.7593V15.4534H69.6735V18.4165Z" fill="white"/>
<path d="M113.449 17.3608H112.006V13.6717H110.382V27.6027H112.006V19.0362H113.449V27.975H115.132V13.4297H113.449V17.3608Z" fill="white"/>
<path d="M108.001 19.2894C107.614 18.4486 107.456 17.5085 107.456 16.3543V15.8051H109.404V14.2383H103.743V15.8051H105.754V16.3853C105.754 17.4775 105.61 18.371 105.264 19.1995C104.862 20.152 104.186 21.0083 103.108 21.9267L103.033 21.995L104.099 23.0468L104.164 22.9971C104.7 22.6031 105.261 22.0322 105.729 21.4427C106.125 20.9463 106.458 20.4312 106.667 19.9782C106.882 20.4188 107.219 20.9246 107.611 21.3962C108.066 21.9484 108.581 22.4728 109.073 22.7862L109.139 22.8296L110.036 21.7623L109.965 21.6971C108.998 20.8594 108.4 20.1116 108.007 19.2863L108.001 19.2894Z" fill="white"/>
<path d="M60.1641 20.4823H65.8648V22.1391H67.7255V20.4823H73.5166V18.9961H60.1641V20.4823Z" fill="white"/>
<path d="M124.91 20.0072H119.106V15.6107H123.526V14.0625H117.367V21.5089H124.91V20.0072Z" fill="white"/>
<path d="M121.628 23.3398H119.892V27.9752H128.011V26.4487H121.628V23.3398Z" fill="white"/>
<path d="M127.971 17.4601V13.4297H126.256V24.1618H127.971V19.0052H130V17.4601H127.971Z" fill="white"/>
<path d="M36.4078 8.94191L31.9601 7.10823L36.4078 5.27455L35.6161 3.37882L31.1715 5.2125L33.0136 0.784977L31.1061 0L29.2671 4.42752L27.4251 0L25.5176 0.784977L27.3596 5.2125L22.915 3.37882L22.1265 5.27455L26.5711 7.10823L22.1265 8.94191L22.915 10.8377L27.3596 9.00397L25.5176 13.4315L27.4251 14.2165L29.2671 9.79205L31.1061 14.2165L33.0136 13.4284L31.1715 9.00397L35.6161 10.8377L36.4078 8.94191Z" fill="white"/>
<path d="M7.62988 21.2919H10.5878V13.4297H0.473633V16.0794H7.62988V21.2919Z" fill="white"/>
<path d="M19.1685 21.2919H22.1263V13.4297H12.0122V16.0794H19.1685V21.2919Z" fill="white"/>
<path d="M0 25.3606H19.1685V29.4096H22.1264V22.7109H0V25.3606Z" fill="white"/>
<path d="M7.15625 41.7809H22.1264V30.7695H7.15625V41.7809ZM10.111 33.4223H19.1685V39.1343H10.111V33.4223Z" fill="white"/>
</g>
<defs>
<clipPath id="clip0_42_1788">
<rect width="130" height="43" fill="white"/>
</clipPath>
</defs>
</svg>
