<svg width="142" height="23" viewBox="0 0 142 23" fill="none" xmlns="http://www.w3.org/2000/svg">
<path d="M141.424 11.6715L137.275 11.6194V14.5123C137.275 18.2383 136.64 20.9692 136.336 21.7792C136.134 22.0164 135.679 22.1437 135.398 22.0685C135.223 21.4147 134.869 19.3839 134.869 16.0224V2.99864C134.869 2.45478 133.374 1.33235 132.817 1.1472C132.666 1.09513 133.149 0.52234 133.301 0.52234C134.442 0.52234 137.427 1.22242 137.348 1.77206C137.298 2.13657 137.27 2.58207 137.27 3.05072V10.497L140.406 9.21833C140.687 9.11419 141.924 11.6657 141.418 11.6657M132.823 13.0774C133.256 13.7023 132.087 16.358 131.659 15.7331C131.052 14.8479 129.383 12.2443 127.887 10.497C125.886 13.3609 123.407 15.681 121.181 16.9076C120.9 16.8845 120.574 16.4621 120.574 16.2075C123.334 13.6791 126.448 9.25305 127.764 5.21459C127.842 4.98316 126.904 4.2773 126.499 4.01694C126.37 3.93594 126.932 3.49622 127.084 3.49622C127.842 3.49622 129.917 4.38144 130.423 4.74594C130.704 4.95423 130.726 5.0873 130.597 5.42288C130.04 6.90981 129.304 8.31575 128.472 9.61755C130.344 10.9483 132.418 12.4815 132.823 13.0832M119.41 11.9029L115.234 11.8219V14.5065C115.234 18.2325 114.649 20.9634 114.323 21.7734C114.121 22.0106 113.665 22.1379 113.412 22.0627C113.21 21.4089 112.884 19.3781 112.884 16.0166V2.99864C112.884 2.45478 111.389 1.38442 110.832 1.1472C110.703 1.09513 111.164 0.52234 111.315 0.52234C112.457 0.52234 115.363 1.22242 115.312 1.77206C115.29 2.13657 115.239 2.58207 115.239 3.05072V10.7342L118.404 9.48448C118.708 9.3514 119.95 11.9087 119.416 11.9087M105.84 13.1816C107.004 13.1816 107.864 12.3484 107.864 11.0698C107.864 9.79112 107.054 8.93483 105.84 8.93483C104.626 8.93483 103.816 9.79691 103.816 11.0698C103.816 12.3426 104.626 13.1816 105.84 13.1816ZM101.894 2.32171C101.866 2.21757 101.995 1.85306 102.147 1.87621C102.979 2.03242 103.816 2.18864 104.879 2.32171L107.459 2.611C107.69 2.63414 108.673 4.04587 108.016 4.04587H104.12C103.462 4.04587 101.945 2.55893 101.894 2.3275M99.3137 5.49809C99.2912 5.41709 99.443 5.13359 99.5161 5.15673C99.949 5.31295 101.489 5.36502 102.956 5.33609L108.218 5.28402C109.736 5.26087 110.191 4.47401 110.422 4.47401C110.675 4.47401 111.636 5.85102 111.636 6.48167C111.636 6.58581 111.535 6.66103 111.355 6.66103C111.102 6.66103 109.635 6.58581 108.471 6.58581L102.799 6.60896C101.888 6.60896 101.281 6.81724 101 7.0776C100.292 6.86931 99.4037 5.77581 99.3025 5.48652M111.889 16.1497C109.612 17.22 105.256 17.8449 102.271 18.2325C101.461 18.3367 100.978 18.4929 100.5 18.7822C99.741 18.5739 98.6279 17.4283 98.5267 16.9828C98.5492 16.8555 98.656 16.7225 98.7291 16.6415C99.5667 16.6415 100.781 16.6646 102.248 16.5894C103.159 16.5373 104.019 16.4852 104.806 16.41L104.654 14.1709C102.732 13.8296 101.54 12.6609 101.54 11.0466C101.54 9.27619 103.035 8.07854 105.385 7.94546C105.407 7.84132 105.435 7.76611 105.435 7.65618C105.435 7.44789 105.385 7.21646 105.104 7.00239C105.104 6.50481 106.622 7.00239 106.622 7.26275C106.622 7.36689 106.492 7.67932 106.419 7.93968C108.724 8.09589 110.163 9.29355 110.163 11.0408C110.163 12.6551 108.921 13.8296 107.026 14.1652L106.925 16.196C109.331 15.9067 110.95 15.519 112.035 15.1545C112.265 15.0793 112.164 16.0108 111.883 16.1439M83.1184 3.46729L83.0959 7.81818H88.9928L89.1446 3.46729H83.1184ZM79.2958 2.50107C79.2733 2.368 79.6275 1.92828 79.8018 1.92828C80.2346 1.92828 81.7524 1.98035 82.7361 2.15971H88.352C89.0603 2.15971 89.4425 2.05557 89.718 1.79521C90.0215 1.69106 91.9946 2.00349 91.944 2.33907L91.1064 7.57518C91.4606 7.91654 91.944 8.59347 91.944 8.95797C91.944 9.06212 91.8429 9.13733 91.663 9.13733C91.41 9.13733 90.4712 9.1084 89.0546 9.1084H82.8261C82.6743 9.39769 82.4719 9.65805 82.2471 9.91841C82.0166 10.1498 81.6119 10.2598 81.3083 10.1788C81.0553 9.5539 80.853 8.35625 80.6731 6.19238L80.4482 3.48465C80.4257 3.22429 79.7118 2.6515 79.2846 2.49528M93.3157 20.9923C93.3157 21.0965 93.2426 21.1775 93.0402 21.1775H90.4319L82.6856 21.2006C80.5382 21.2006 80.1053 20.4427 80.1053 18.9615V16.7456C80.1053 16.3522 79.2958 15.6752 78.8405 15.6C78.6887 15.5769 79.1946 14.9231 79.397 14.9231C80.2852 14.9231 81.6006 15.1314 82.2583 15.3917C82.382 15.4438 82.59 15.5248 82.5338 15.8083C82.4832 16.1439 82.4832 16.6415 82.4832 17.058V18.9847C82.4832 19.7947 82.7642 19.8988 83.4444 19.8988L89.9484 19.8757C91.3144 19.8757 91.7698 19.0946 91.9497 19.0946C92.3038 19.0946 93.3157 20.3964 93.3157 20.9923ZM95.7722 12.5567C95.7722 12.6898 95.671 12.765 95.4912 12.765H87.4694V14.2751C87.4694 15.8083 86.9129 17.139 86.5306 17.7407C86.3282 17.978 85.8954 18.0821 85.6199 18.0011C85.3951 17.301 85.0634 16.358 85.0634 14.6396V12.765H79.6725C78.7618 12.765 78.1547 13.0254 77.8736 13.2857C77.1653 13.0774 75.7206 11.9319 75.7206 11.6715C75.7206 11.5673 75.8499 11.2838 75.923 11.307C76.3558 11.4632 77.8961 11.4863 79.3633 11.4863L91.7642 11.4632C93.3325 11.4632 93.8666 10.5491 94.0689 10.5491C94.35 10.5491 95.7666 11.9319 95.7666 12.5567M60.4416 5.96674C60.4416 7.63303 61.504 8.75547 63.1005 8.75547C64.697 8.75547 65.9112 7.63303 65.9112 5.96674C65.9112 4.30044 64.7701 3.178 63.1286 3.178C61.4872 3.178 60.4472 4.30044 60.4472 5.96674M58.0356 6.04195C58.0356 3.69872 59.8569 2.13657 62.6677 1.98035C62.6901 1.90514 62.7183 1.82414 62.7183 1.74313C62.7183 1.5117 62.6677 1.25135 62.3416 1.01413C62.3416 0.493411 64.0393 1.01413 64.0393 1.30342C64.0393 1.40756 63.91 1.71999 63.8369 1.98035C66.5183 2.18864 68.2891 3.75079 68.2891 6.04195C68.2891 8.46618 66.2373 10.0515 63.1792 10.0515C60.1212 10.0515 58.0412 8.4604 58.0412 6.04195M73.1685 13.1584C73.1685 13.2626 73.0673 13.3378 72.893 13.3378H67.4009V14.5875C67.4009 18.1053 66.7938 20.8361 66.4621 21.6461C66.2598 21.8833 65.8044 21.9817 65.5515 21.9354C65.3491 21.2816 64.9949 19.2508 64.9949 16.1034V13.3436L61.1218 13.3667V14.1478C61.1218 17.6366 60.5147 20.3733 60.2111 21.1833C60.0087 21.4147 59.5534 21.5246 59.2723 21.4668C59.0981 20.813 58.7439 18.7822 58.7439 15.6579V13.3667H57.0743C56.1637 13.3667 55.5566 13.6271 55.2755 13.8874C54.5672 13.6791 53.1225 12.5336 53.1225 12.2443C53.1225 12.1633 53.2518 11.8798 53.3248 11.9029C53.7577 12.0591 55.298 12.0823 56.7652 12.0823L69.166 12.0302C70.7344 12.0302 71.2684 11.1161 71.4708 11.1161C71.7463 11.1161 73.1629 12.522 73.1629 13.1469M38.0458 4.9253C38.0458 6.36017 39.0858 7.37267 40.6542 7.37267C42.2225 7.37267 43.2625 6.35438 43.2625 4.9253C43.2625 3.49622 42.2225 2.53 40.6542 2.53C39.0858 2.53 38.0458 3.51936 38.0458 4.9253ZM35.6398 5.02944C35.6398 2.96971 37.3881 1.48856 40.092 1.30342C40.1145 1.17034 40.1707 1.0662 40.1707 0.938915C40.1707 0.701699 40.092 0.470268 39.7885 0.233052C39.7885 -0.310809 41.4861 0.233052 41.4861 0.493411C41.4861 0.649627 41.3119 1.01413 41.2051 1.30342C43.8865 1.48278 45.6853 2.96971 45.6853 5.02944C45.6853 7.19332 43.6335 8.72654 40.6485 8.72654C37.6636 8.72654 35.6398 7.18753 35.6398 5.02944ZM47.636 21.4147C47.636 21.5478 47.5348 21.5941 47.3549 21.5941H37.5118C35.8141 21.5941 35.2351 20.9923 35.1845 19.6385L35.1339 17.8912C35.1339 17.6308 34.4762 17.2952 34.0434 17.1101C34.0209 16.977 34.3975 16.5373 34.5999 16.5373C35.0833 16.5373 36.8766 16.6415 37.5343 16.8787H43.9371L43.9596 14.7669H37.5568C36.7698 14.7669 36.2638 14.9752 35.9884 15.2355C35.0777 15.1024 34.3413 13.8816 34.3188 13.6965C34.2963 13.5634 34.42 13.3089 34.5493 13.332C35.3588 13.4882 36.3706 13.4882 37.8378 13.4882H43.077C43.7853 13.4882 44.1675 13.4072 44.443 13.1237C44.7466 13.1006 46.7703 13.332 46.6972 13.6734L46.062 16.7456C46.5454 17.1101 46.849 17.735 46.849 17.8912C46.849 18.0243 46.7703 18.1284 46.6466 18.1284C46.4217 18.1284 44.977 18.0995 43.8134 18.0995H37.5399V19.245C37.5399 20.1303 37.7928 20.3096 38.934 20.3096H44.4767C46.0451 20.3096 46.2756 19.6327 46.4498 19.6327C46.804 19.6327 47.6416 20.8593 47.6416 21.4031M50.5198 11.3301C50.5198 11.4343 50.4186 11.5095 50.2387 11.5095H46.6691L34.4481 11.5384C33.5599 11.5384 32.9584 11.7988 32.6773 12.036C31.9409 11.8277 30.6255 10.7053 30.5243 10.4218C30.5019 10.3408 30.6536 10.0573 30.7267 10.0804C31.1596 10.2366 32.6998 10.2656 34.167 10.2656L46.5454 10.2135C48.0913 10.2135 48.6197 9.30512 48.8502 9.30512C49.1313 9.30512 50.5198 10.7111 50.5198 11.3359M22.5813 11.2781C22.5813 11.5095 22.407 11.5095 21.7943 11.6946C21.5413 11.7756 21.4176 12.1922 21.2096 12.8402C20.7768 14.2172 19.3883 16.4332 16.5045 16.4332C13.6207 16.4332 12.1029 13.9048 12.0017 13.7775C11.85 13.5692 11.6251 13.3899 11.4171 13.3899C11.2934 13.3899 11.1923 13.4419 11.1136 13.494C10.0736 14.223 8.93807 15.0562 8.93807 16.9597C8.93807 18.2094 9.94992 19.6443 11.6701 19.6443C13.1373 19.6443 14.0985 18.2094 14.4021 17.22C14.5033 16.8787 14.4752 16.7514 14.6551 16.7514C14.8855 16.7514 14.9586 17.2721 15.2622 17.2721C15.5151 17.2721 15.4364 17.139 15.7681 17.139C16.0717 17.139 16.1504 17.5556 16.4033 17.5556C16.7575 17.5556 17.2409 17.2432 17.4658 17.2432C17.5445 17.2432 17.6681 17.2432 17.6681 17.3184C17.6681 17.4515 17.4377 17.5787 17.2353 17.7639C16.8024 18.1573 16.4764 18.3888 16.1447 18.9615C14.9811 20.9923 13.6376 21.3568 12.9574 21.5651C12.7044 21.6403 12.4515 21.7734 12.3503 22.0106C11.9736 22.8959 11.7432 23 11.642 23C11.5127 23 11.4677 22.8438 11.4396 22.5024C11.4115 22.1379 11.2091 21.7213 10.5289 21.5883C8.78067 21.2469 6.63328 19.4244 6.63328 16.5605C6.63328 13.98 8.53332 12.9675 9.49459 11.9781C9.62388 11.8451 9.72507 11.6888 9.72507 11.4574V11.3764C9.72507 11.2491 9.69696 11.0929 9.54518 10.8846C8.58392 9.6349 7.85313 8.80176 6.5321 8.80176C5.08739 8.80176 3.82257 10.0283 3.82257 11.7988C3.82257 13.7023 4.73324 14.3503 5.64391 14.5875C5.94747 14.6627 6.04865 14.6917 6.04865 14.7958C6.04865 15.0041 5.84628 14.952 5.84628 15.2644C5.84628 15.4959 6.02055 15.4727 6.02055 15.8372C6.02055 16.0976 5.79007 16.1786 5.79007 16.5662C5.79007 16.8787 5.94185 16.9828 5.94185 17.168C5.94185 17.3994 6.07114 17.3762 6.07114 17.868C6.07114 18.0011 6.12173 18.0995 6.02055 18.0995C5.91936 18.0995 5.79007 17.9201 5.64391 17.6829C5.28976 17.1332 4.9075 16.7977 4.63205 16.5894C2.42846 14.9462 2.35538 14.2172 1.79886 13.1006C1.66956 12.8402 1.62459 12.4005 1.36601 12.2674C0.556521 11.8508 0 11.7236 0 11.0408C0 10.7284 0.35415 11.0408 0.910671 11.0408C1.21423 11.0408 1.56838 11.0929 1.74826 10.4449C2.1249 9.06211 3.72138 6.85196 6.50399 6.85196C9.46648 6.85196 10.9337 9.38033 11.0349 9.50762C11.2372 9.79691 11.4115 9.89526 11.6195 9.89526C11.7488 9.89526 11.8443 9.89526 12.0748 9.68698C13.9468 7.96861 14.0985 7.21067 14.0985 6.22131C14.0985 4.97159 13.1373 3.51358 11.4171 3.51358C9.69696 3.51358 8.88747 4.91951 8.657 5.96095C8.5783 6.29652 8.5277 6.48167 8.37593 6.48167C8.15107 6.48167 8.15107 6.16924 7.89248 6.16924C7.48774 6.16924 7.43715 6.3486 7.23478 6.3486C6.9537 6.3486 6.9537 5.82788 6.54896 5.82788C6.44778 5.82788 6.22292 5.96095 6.06552 5.96095C5.68888 5.96095 5.66078 6.03617 5.48089 6.03617C5.27852 6.03617 5.07615 5.93202 5.07615 5.77581C5.07615 5.61959 5.20544 5.51545 5.60456 5.30716C6.1386 5.01787 6.61642 4.80959 6.86938 4.2368C7.65638 2.43743 9.37654 1.86464 10.0342 1.60428C10.2872 1.50013 10.4109 1.39599 10.5402 1.15877C11.0686 0.169409 11.2991 0.0652655 11.4508 0.0652655C11.6026 0.0652655 11.5801 0.325624 11.6532 0.638055C11.7319 1.00256 11.7319 1.29185 12.3109 1.44806C13.958 1.89356 16.3865 3.45572 16.3865 6.31967C16.3865 9.18362 13.6544 10.983 13.5252 11.0871C13.2216 11.3186 13.1204 11.5037 13.1204 11.6831C13.1204 11.8161 13.1991 11.9723 13.2722 12.1286C13.9299 13.4824 15.071 14.3677 16.3865 14.3677C17.9548 14.3677 19.1691 12.8576 19.1691 11.2954C19.1691 9.73326 18.1572 8.79597 17.269 8.50668C16.9374 8.40254 16.7856 8.40254 16.7856 8.21739C16.7856 8.00911 17.0104 8.08432 17.0104 7.77189C17.0104 7.54046 16.9092 7.59253 16.9092 7.22803C16.9092 6.96767 17.2128 6.88667 17.2128 6.49903C17.2128 6.18659 17.061 6.08245 17.061 5.90309C17.061 5.66588 16.9823 5.69481 16.9823 5.19723C16.9823 5.06416 16.9317 4.9658 17.0329 4.9658C17.1566 4.9658 17.2859 5.14516 17.4377 5.38237C17.7918 5.93202 18.0729 6.3486 18.3483 6.52795C20.3496 7.82975 20.7768 8.6629 21.2321 9.83741C21.3333 10.0978 21.4345 10.5375 21.7381 10.7226C21.991 10.8788 22.5475 11.064 22.5475 11.2723" fill="white"/>
</svg>
