<svg xmlns="http://www.w3.org/2000/svg" xmlns:xlink="http://www.w3.org/1999/xlink" width="118" height="31.765" viewBox="0 0 118 31.765">
  <defs>
    <clipPath id="clip-path">
      <rect id="사각형_15" data-name="사각형 15" width="118" height="31.765" fill="none"/>
    </clipPath>
  </defs>
  <g id="로고" transform="translate(0 0)">
    <g id="그룹_1" data-name="그룹 1" transform="translate(0 0)" clip-path="url(#clip-path)">
      <path id="패스_1" data-name="패스 1" d="M.845,26.061s13.887,10.167,10.748-1.6c0,0-6.278-8.633-2.747-16.088S28.073-3.8,32,4.052c0,0,1.177,3.139-3.924-1.177,0,0-7.455-3.532-6.671,4.316,0,0,5.1,4.316,4.709,12.949s-7.063,9.025-7.063,9.025,5.494-3.139-1.962-13.341c0,0,5.494,9.81-3.139,15.3-1.189.9-7.375,1.022-9.417-.785-2.566-2.271-6.192-5.03-3.685-4.281" transform="translate(0 0)" fill="#6aae27"/>
      <path id="패스_2" data-name="패스 2" d="M74.617,27.5c0-1.4,1.209-2.033,2.445-2.033A2.09,2.09,0,0,1,79.4,27.5V44.174a2.08,2.08,0,0,1-2.335,2.115,2.167,2.167,0,0,1-2.445-2.115Z" transform="translate(-45.338 -15.474)" fill="#362f2d"/>
      <path id="패스_3" data-name="패스 3" d="M113.176,32.911c-.632.907-1.264,1.869-1.9,2.939-.66,1.072-1.291,2.033-1.868,2.912a2.04,2.04,0,0,1-1.785.879,1.98,1.98,0,0,1-1.731-.906l-3.709-5.961v11.4a2.1,2.1,0,0,1-2.362,2.115,2.121,2.121,0,0,1-2.39-2.115V27.527a2.159,2.159,0,0,1,2.39-2.06,3.316,3.316,0,0,1,3.351,1.813l4.45,6.978,4.615-6.978a3.383,3.383,0,0,1,3.3-1.813,2.093,2.093,0,0,1,2.363,2.06V44.174a2.377,2.377,0,0,1-4.725,0Z" transform="translate(-59.203 -15.474)" fill="#362f2d"/>
      <path id="패스_4" data-name="패스 4" d="M164.725,44.175a2.1,2.1,0,0,1-2.335,2.115c-1.291,0-2.445-.659-2.445-2.115V26.924c0-.961.8-1.456,1.978-1.456h6.483c4.67,0,8.571,1.786,8.571,6.456v.165c0,4.67-3.709,6.483-8.351,6.483h-3.9Zm3.9-8.735c2.225,0,3.6-.989,3.6-3.159V31.9c0-2.115-1.7-3.049-4.011-3.049h-3.489V35.44Z" transform="translate(-97.184 -15.474)" fill="#362f2d"/>
      <path id="패스_5" data-name="패스 5" d="M210.4,39.917c-.027-1.318-.055-2.637-.055-3.956,0-1.291.027-2.637.055-4.011.083-4.752,3.654-6.483,8.379-6.483,4.587,0,8.131,1.923,8.351,6.483.11,2.637.082,5.467,0,7.966-.082,4.587-3.708,6.511-8.351,6.511-4.835,0-8.3-1.758-8.379-6.511m8.379-11.071c-2.39,0-3.708,1.016-3.791,3.131-.055,2.665-.055,5.3,0,7.939.082,2.17,1.4,3.1,3.791,3.1,2.225,0,3.654-1.044,3.791-3.132a76.511,76.511,0,0,0,0-7.939c-.082-2.115-1.511-3.1-3.791-3.1" transform="translate(-127.807 -15.474)" fill="#362f2d"/>
      <path id="패스_6" data-name="패스 6" d="M263.2,27.5c0-1.4,1.181-2.033,2.418-2.033,1.291,0,2.335.66,2.335,2.033V42.856h7.911c1.539,0,2.06.8,2.06,1.758,0,.769-.439,1.676-2.06,1.676H265.448c-1.4,0-2.253-.687-2.253-1.9Z" transform="translate(-159.919 -15.474)" fill="#362f2d"/>
    </g>
  </g>
</svg>
